REM DIRINDEX 1\3,1\4,1\5,1\6,1\2\7,1\2\8,1\2\9,1\10
REM DIRNAME folder01,folder02,folder03,folder04,folder05,folder06,folder07,folder08,folder09,folder10
TITLE ""
FILE "1-46 Level 3-396-408.mp3" MP3
  TRACK 01 AUDIO
    TITLE "0:"
    INDEX 01 00:00:00
  TRACK 02 AUDIO
    TITLE "7:cjc056_1385"
    INDEX 01 00:00:05
  TRACK 03 AUDIO
    TITLE "0:"
    INDEX 01 00:01:13
  TRACK 04 AUDIO
    TITLE "8:cjc056_1386"
    INDEX 01 00:01:24
  TRACK 05 AUDIO
    TITLE "0:"
    INDEX 01 00:02:28
  TRACK 06 AUDIO
    TITLE "9:cjc056_1387"
    INDEX 01 00:02:42
  TRACK 07 AUDIO
    TITLE "0:"
    INDEX 01 00:04:15
  TRACK 08 AUDIO
    TITLE "7:cjc056_1388"
    INDEX 01 00:04:68
  TRACK 09 AUDIO
    TITLE "0:"
    INDEX 01 00:05:73
  TRACK 10 AUDIO
    TITLE "8:cjc056_1389"
    INDEX 01 00:06:12
  TRACK 11 AUDIO
    TITLE "0:"
    INDEX 01 00:07:31
  TRACK 12 AUDIO
    TITLE "9:cjc056_1390"
    INDEX 01 00:07:45
  TRACK 13 AUDIO
    TITLE "0:"
    INDEX 01 00:09:42
  TRACK 14 AUDIO
    TITLE "7:cjc056_1391"
    INDEX 01 00:10:18
  TRACK 15 AUDIO
    TITLE "0:"
    INDEX 01 00:11:15
  TRACK 16 AUDIO
    TITLE "8:cjc056_1392"
    INDEX 01 00:11:29
  TRACK 17 AUDIO
    TITLE "0:"
    INDEX 01 00:12:32
  TRACK 18 AUDIO
    TITLE "9:cjc056_1393"
    INDEX 01 00:12:48
  TRACK 19 AUDIO
    TITLE "0:"
    INDEX 01 00:14:31
  TRACK 20 AUDIO
    TITLE "7:cjc056_1394"
    INDEX 01 00:15:09
  TRACK 21 AUDIO
    TITLE "0:"
    INDEX 01 00:16:20
  TRACK 22 AUDIO
    TITLE "8:cjc056_1395"
    INDEX 01 00:16:34
  TRACK 23 AUDIO
    TITLE "0:"
    INDEX 01 00:17:43
  TRACK 24 AUDIO
    TITLE "9:cjc056_1396"
    INDEX 01 00:17:57
  TRACK 25 AUDIO
    TITLE "0:"
    INDEX 01 00:19:44
  TRACK 26 AUDIO
    TITLE "7:cjc056_1397"
    INDEX 01 00:20:22
  TRACK 27 AUDIO
    TITLE "0:"
    INDEX 01 00:21:37
  TRACK 28 AUDIO
    TITLE "8:cjc056_1398"
    INDEX 01 00:21:51
  TRACK 29 AUDIO
    TITLE "0:"
    INDEX 01 00:23:04
  TRACK 30 AUDIO
    TITLE "9:cjc056_1399"
    INDEX 01 00:23:18
  TRACK 31 AUDIO
    TITLE "0:"
    INDEX 01 00:24:59
  TRACK 32 AUDIO
    TITLE "7:cjc056_1400"
    INDEX 01 00:25:35
  TRACK 33 AUDIO
    TITLE "0:"
    INDEX 01 00:26:50
  TRACK 34 AUDIO
    TITLE "8:cjc056_1401"
    INDEX 01 00:26:66
  TRACK 35 AUDIO
    TITLE "0:"
    INDEX 01 00:27:63
  TRACK 36 AUDIO
    TITLE "9:cjc056_1402"
    INDEX 01 00:28:02
  TRACK 37 AUDIO
    TITLE "0:"
    INDEX 01 00:29:44
  TRACK 38 AUDIO
    TITLE "7:cjc056_1403"
    INDEX 01 00:30:20
  TRACK 39 AUDIO
    TITLE "0:"
    INDEX 01 00:31:29
  TRACK 40 AUDIO
    TITLE "8:cjc056_1404"
    INDEX 01 00:31:41
  TRACK 41 AUDIO
    TITLE "0:"
    INDEX 01 00:33:24
  TRACK 42 AUDIO
    TITLE "9:cjc056_1405"
    INDEX 01 00:33:38
  TRACK 43 AUDIO
    TITLE "0:"
    INDEX 01 00:36:09
  TRACK 44 AUDIO
    TITLE "7:cjc056_1406"
    INDEX 01 00:36:62
  TRACK 45 AUDIO
    TITLE "0:"
    INDEX 01 00:37:69
  TRACK 46 AUDIO
    TITLE "8:cjc056_1407"
    INDEX 01 00:38:10
  TRACK 47 AUDIO
    TITLE "0:"
    INDEX 01 00:39:60
  TRACK 48 AUDIO
    TITLE "9:cjc056_1408"
    INDEX 01 00:40:01
  TRACK 49 AUDIO
    TITLE "0:"
    INDEX 01 00:41:44
  TRACK 50 AUDIO
    TITLE "8:cjc056_1409"
    INDEX 01 00:41:69
  TRACK 51 AUDIO
    TITLE "0:"
    INDEX 01 00:43:09
  TRACK 52 AUDIO
    TITLE "9:cjc056_1410"
    INDEX 01 00:43:23
  TRACK 53 AUDIO
    TITLE "0:"
    INDEX 01 00:44:56
  TRACK 54 AUDIO
    TITLE "7:cjc056_1411"
    INDEX 01 00:45:32
  TRACK 55 AUDIO
    TITLE "0:"
    INDEX 01 00:46:31
  TRACK 56 AUDIO
    TITLE "8:cjc056_1412"
    INDEX 01 00:46:45
  TRACK 57 AUDIO
    TITLE "0:"
    INDEX 01 00:47:54
  TRACK 58 AUDIO
    TITLE "9:cjc056_1413"
    INDEX 01 00:47:66
  TRACK 59 AUDIO
    TITLE "0:"
    INDEX 01 00:49:74
  TRACK 60 AUDIO
    TITLE "7:cjc056_1414"
    INDEX 01 00:50:52
  TRACK 61 AUDIO
    TITLE "0:"
    INDEX 01 00:51:46
  TRACK 62 AUDIO
    TITLE "8:cjc056_1415"
    INDEX 01 00:51:60
  TRACK 63 AUDIO
    TITLE "0:"
    INDEX 01 00:53:09
  TRACK 64 AUDIO
    TITLE "9:cjc056_1416"
    INDEX 01 00:53:23
  TRACK 65 AUDIO
    TITLE "0:"
    INDEX 01 00:54:72
  TRACK 66 AUDIO
    TITLE "7:cjc056_1417"
    INDEX 01 00:55:50
  TRACK 67 AUDIO
    TITLE "0:"
    INDEX 01 00:56:59
  TRACK 68 AUDIO
    TITLE "8:cjc056_1418"
    INDEX 01 00:56:67
  TRACK 69 AUDIO
    TITLE "0:"
    INDEX 01 00:57:70
  TRACK 70 AUDIO
    TITLE "9:cjc056_1419"
    INDEX 01 00:58:11
  TRACK 71 AUDIO
    TITLE "0:"
    INDEX 01 00:59:49
  TRACK 72 AUDIO
    TITLE "7:cjc056_1420"
    INDEX 01 01:00:25
  TRACK 73 AUDIO
    TITLE "0:"
    INDEX 01 01:01:38
  TRACK 74 AUDIO
    TITLE "8:cjc056_1421"
    INDEX 01 01:01:52
  TRACK 75 AUDIO
    TITLE "0:"
    INDEX 01 01:02:67
  TRACK 76 AUDIO
    TITLE "9:cjc056_1422"
    INDEX 01 01:03:08
  TRACK 77 AUDIO
    TITLE "0:"
    INDEX 01 01:04:60
  TRACK 78 AUDIO
    TITLE "7:cjc056_1423"
    INDEX 01 01:05:38
  TRACK 79 AUDIO
    TITLE "0:"
    INDEX 01 01:06:32
  TRACK 80 AUDIO
    TITLE "8:cjc056_1424"
    INDEX 01 01:06:47
  TRACK 81 AUDIO
    TITLE "0:"
    INDEX 01 01:07:47
  TRACK 82 AUDIO
    TITLE "9:cjc056_1425"
    INDEX 01 01:07:57
  TRACK 83 AUDIO
    TITLE "0:"
    INDEX 01 01:09:57
